<?xml version="1.0" standalone="no"?><svg xmlns:xlink="http://www.w3.org/1999/xlink" xmlns="http://www.w3.org/2000/svg" viewBox="0 0 700 559.9995842230466" preserveAspectRatio="xMaxYMax slice"><g transform="scale(1.039442383708671)"><rect x="0" y="0" width="740.78125" height="538.75" fill="#c8dfdb"/><rect x="0" y="0" width="67.34" height="67.34" fill="#c8ded9"/><polygon points="67.34,0 67.34,67.34 0,67.34" fill="#c8cfb8"/><rect x="67.34" y="0" width="67.34" height="67.34" fill="#9ec2b4"/><polygon points="67.34,0 134.68,67.34 67.34,67.34" fill="#c8dbd3"/><rect x="134.69" y="0" width="67.34" height="67.34" fill="#e8b6b3"/><polygon points="134.69,0 202.03,0 202.03,67.34" fill="#e2bdba"/><rect x="202.03125" y="0" width="67.34375" height="67.34375" fill="#c8dfdb"/><rect x="202.03" y="0" width="33.67" height="33.67" fill="#c8d9cf"/><polygon points="202.03,0 235.7,33.67 202.03,33.67" fill="#f2d0b3"/><rect x="235.7" y="0" width="33.67" height="33.67" fill="#c8d6c7"/><polygon points="235.7,0 269.37,0 235.7,33.67" fill="#d4bbc0"/><rect x="202.03" y="33.67" width="33.67" height="33.67" fill="#94bbab"/><polygon points="202.03,33.67 235.7,33.67 202.03,67.34" fill="#b1cfc5"/><rect x="235.7" y="33.67" width="33.67" height="33.67" fill="#ed748a"/><polygon points="235.7,33.67 269.37,33.67 235.7,67.34" fill="#cadcd8"/><rect x="269.38" y="0" width="67.34" height="67.34" fill="#a2c5b8"/><polygon points="336.72,0 336.72,67.34 269.38,67.34" fill="#f16a82"/><rect x="336.71875" y="0" width="67.34375" height="67.34375" fill="#c8dfdb"/><rect x="336.72" y="0" width="33.67" height="33.67" fill="#c8ceb5"/><polygon points="370.39000000000004,0 370.39000000000004,33.67 336.72,33.67" fill="#d8cbc7"/><rect x="370.39" y="0" width="33.67" height="33.67" fill="#c8dfdb"/><polygon points="370.39,0 404.06,33.67 370.39,33.67" fill="#c8d3c1"/><rect x="336.72" y="33.67" width="33.67" height="33.67" fill="#f5a6a3"/><polygon points="370.39000000000004,33.67 370.39000000000004,67.34 336.72,67.34" fill="#bdd7d1"/><rect x="370.39" y="33.67" width="33.67" height="33.67" fill="#c8cfb8"/><polygon points="370.39,33.67 404.06,67.34 370.39,67.34" fill="#f9516f"/><rect x="404.0625" y="0" width="67.34375" height="67.34375" fill="#c8dfdb"/><rect x="404.06" y="0" width="33.67" height="33.67" fill="#8fb7a6"/><polygon points="404.06,0 437.73,0 404.06,33.67" fill="#edb1ad"/><rect x="437.73" y="0" width="33.67" height="33.67" fill="#ceddd5"/><polygon points="437.73,0 471.40000000000003,0 471.40000000000003,33.67" fill="#a4c6ba"/><rect x="404.06" y="33.67" width="33.67" height="33.67" fill="#c0d9d3"/><polygon points="437.73,33.67 437.73,67.34 404.06,67.34" fill="#c8cdb5"/><rect x="437.73" y="33.67" width="33.67" height="33.67" fill="#c8d6c8"/><polygon points="437.73,33.67 471.40000000000003,33.67 437.73,67.34" fill="#ebd2ba"/><rect x="471.41" y="0" width="67.34" height="67.34" fill="#ecd2b9"/><polygon points="471.41,0 538.75,0 471.41,67.34" fill="#f3cfb3"/><rect x="538.75" y="0" width="67.34" height="67.34" fill="#d8cbc7"/><polygon points="538.75,0 606.09,0 606.09,67.34" fill="#abcbc0"/><rect x="606.09" y="0" width="67.34" height="67.34" fill="#ecb2ae"/><polygon points="606.09,0 673.4300000000001,0 673.4300000000001,67.34" fill="#d3bfc3"/><rect x="673.4375" y="0" width="67.34375" height="67.34375" fill="#c8dfdb"/><rect x="673.44" y="0" width="33.67" height="33.67" fill="#abcbc0"/><polygon points="673.44,0 707.11,33.67 673.44,33.67" fill="#e97f92"/><rect x="707.11" y="0" width="33.67" height="33.67" fill="#e1bfbb"/><polygon points="740.78,0 740.78,33.67 707.11,33.67" fill="#f0aca9"/><rect x="673.44" y="33.67" width="33.67" height="33.67" fill="#e97f92"/><polygon points="673.44,33.67 707.11,67.34 673.44,67.34" fill="#dcc5c2"/><rect x="707.11" y="33.67" width="33.67" height="33.67" fill="#dbd8c9"/><polygon points="707.11,33.67 740.78,67.34 707.11,67.34" fill="#ccded7"/><rect x="0" y="67.34375" width="67.34375" height="67.34375" fill="#c8dfdb"/><rect x="0" y="67.34" width="33.67" height="33.67" fill="#ddd7c8"/><polygon points="33.67,67.34 33.67,101.01 0,101.01" fill="#c8dfdb"/><rect x="33.67" y="67.34" width="33.67" height="33.67" fill="#f5cfb1"/><polygon points="33.67,67.34 67.34,67.34 33.67,101.01" fill="#c8cfb8"/><rect x="0" y="101.02" width="33.67" height="33.67" fill="#c9deda"/><polygon points="0,101.02 33.67,101.02 0,134.69" fill="#d9d9cb"/><rect x="33.67" y="101.02" width="33.67" height="33.67" fill="#bed8d2"/><polygon points="67.34,101.02 67.34,134.69 33.67,134.69" fill="#e6b9b6"/><rect x="67.34" y="67.34" width="67.34" height="67.34" fill="#90b8a7"/><polygon points="134.68,67.34 134.68,134.68 67.34,134.68" fill="#8fb7a6"/><rect x="134.6875" y="67.34375" width="67.34375" height="67.34375" fill="#c8dfdb"/><rect x="134.69" y="67.34" width="33.67" height="33.67" fill="#dfc1be"/><polygon points="134.69,67.34 168.36,67.34 134.69,101.01" fill="#c8caad"/><rect x="168.36" y="67.34" width="33.67" height="33.67" fill="#f3647e"/><polygon points="168.36,67.34 202.03000000000003,101.01 168.36,101.01" fill="#e68899"/><rect x="134.69" y="101.02" width="33.67" height="33.67" fill="#cadcd8"/><polygon points="134.69,101.02 168.36,101.02 134.69,134.69" fill="#e5d4bf"/><rect x="168.36" y="101.02" width="33.67" height="33.67" fill="#fe4466"/><polygon points="202.03000000000003,101.02 202.03000000000003,134.69 168.36,134.69" fill="#f7a4a1"/><rect x="202.03" y="67.34" width="67.34" height="67.34" fill="#ccdad6"/><polygon points="269.37,67.34 269.37,134.68 202.03,134.68" fill="#dcc6c2"/><rect x="269.38" y="67.34" width="67.34" height="67.34" fill="#ecd2b9"/><polygon points="269.38,67.34 336.72,134.68 269.38,134.68" fill="#ebd2ba"/><rect x="336.71875" y="67.34375" width="67.34375" height="67.34375" fill="#c8dfdb"/><rect x="336.72" y="67.34" width="33.67" height="33.67" fill="#afcec4"/><polygon points="336.72,67.34 370.39000000000004,67.34 336.72,101.01" fill="#d7dacd"/><rect x="370.39" y="67.34" width="33.67" height="33.67" fill="#e4d5c0"/><polygon points="370.39,67.34 404.06,101.01 370.39,101.01" fill="#e48f9f"/><rect x="336.72" y="101.02" width="33.67" height="33.67" fill="#ded7c7"/><polygon points="370.39000000000004,101.02 370.39000000000004,134.69 336.72,134.69" fill="#c8dbd3"/><rect x="370.39" y="101.02" width="33.67" height="33.67" fill="#cbded8"/><polygon points="370.39,101.02 404.06,101.02 370.39,134.69" fill="#93baa9"/><rect x="404.06" y="67.34" width="67.34" height="67.34" fill="#8fb7a6"/><polygon points="404.06,67.34 471.4,134.68 404.06,134.68" fill="#a2c4b8"/><rect x="471.40625" y="67.34375" width="67.34375" height="67.34375" fill="#c8dfdb"/><rect x="471.41" y="67.34" width="33.67" height="33.67" fill="#f45f7a"/><polygon points="471.41,67.34 505.08000000000004,67.34 471.41,101.01" fill="#c8ccb2"/><rect x="505.08" y="67.34" width="33.67" height="33.67" fill="#f5cfb1"/><polygon points="505.08,67.34 538.75,67.34 538.75,101.01" fill="#d1d3cf"/><rect x="471.41" y="101.02" width="33.67" height="33.67" fill="#c8deda"/><polygon points="471.41,101.02 505.08000000000004,101.02 505.08000000000004,134.69" fill="#d5dace"/><rect x="505.08" y="101.02" width="33.67" height="33.67" fill="#c8deda"/><polygon points="538.75,101.02 538.75,134.69 505.08,134.69" fill="#d1dcd3"/><rect x="538.75" y="67.34" width="67.34" height="67.34" fill="#c8dfda"/><polygon points="606.09,67.34 606.09,134.68 538.75,134.68" fill="#f1aba8"/><rect x="606.09" y="67.34" width="67.34" height="67.34" fill="#d7b5bb"/><polygon points="606.09,67.34 673.4300000000001,134.68 606.09,134.68" fill="#c8d9ce"/><rect x="673.44" y="67.34" width="67.34" height="67.34" fill="#ced7d3"/><polygon points="740.7800000000001,67.34 740.7800000000001,134.68 673.44,134.68" fill="#d8cac7"/><rect x="0" y="134.6875" width="67.34375" height="67.34375" fill="#c8dfdb"/><rect x="0" y="134.69" width="33.67" height="33.67" fill="#b0cec5"/><polygon points="0,134.69 33.67,134.69 33.67,168.36" fill="#88b29f"/><rect x="33.67" y="134.69" width="33.67" height="33.67" fill="#f3a8a5"/><polygon points="33.67,134.69 67.34,168.36 33.67,168.36" fill="#d0c9cb"/><rect x="0" y="168.36" width="33.67" height="33.67" fill="#f0ada9"/><polygon points="0,168.36 33.67,202.03000000000003 0,202.03000000000003" fill="#edd2b9"/><rect x="33.67" y="168.36" width="33.67" height="33.67" fill="#94bbab"/><polygon points="33.67,168.36 67.34,168.36 33.67,202.03000000000003" fill="#9cc0b2"/><rect x="67.34" y="134.69" width="67.34" height="67.34" fill="#f4607b"/><polygon points="67.34,134.69 134.68,134.69 67.34,202.03" fill="#cfd6d2"/><rect x="134.6875" y="134.6875" width="67.34375" height="67.34375" fill="#c8dfdb"/><rect x="134.69" y="134.69" width="33.67" height="33.67" fill="#eeafac"/><polygon points="134.69,134.69 168.36,134.69 168.36,168.36" fill="#a6c7bc"/><rect x="168.36" y="134.69" width="33.67" height="33.67" fill="#e9d3bc"/><polygon points="168.36,134.69 202.03000000000003,168.36 168.36,168.36" fill="#efd1b7"/><rect x="134.69" y="168.36" width="33.67" height="33.67" fill="#f4607b"/><polygon points="168.36,168.36 168.36,202.03000000000003 134.69,202.03000000000003" fill="#c8ddd6"/><rect x="168.36" y="168.36" width="33.67" height="33.67" fill="#a9c9be"/><polygon points="202.03000000000003,168.36 202.03000000000003,202.03000000000003 168.36,202.03000000000003" fill="#c8d5c5"/><rect x="202.03125" y="134.6875" width="67.34375" height="67.34375" fill="#c8dfdb"/><rect x="202.03" y="134.69" width="33.67" height="33.67" fill="#cecece"/><polygon points="202.03,134.69 235.7,134.69 235.7,168.36" fill="#a8c9bd"/><rect x="235.7" y="134.69" width="33.67" height="33.67" fill="#fc4a6a"/><polygon points="235.7,134.69 269.37,134.69 235.7,168.36" fill="#e6899a"/><rect x="202.03" y="168.36" width="33.67" height="33.67" fill="#c8ded8"/><polygon points="235.7,168.36 235.7,202.03000000000003 202.03,202.03000000000003" fill="#d9c9c5"/><rect x="235.7" y="168.36" width="33.67" height="33.67" fill="#b7d3cb"/><polygon points="235.7,168.36 269.37,202.03000000000003 235.7,202.03000000000003" fill="#e98194"/><rect x="269.375" y="134.6875" width="67.34375" height="67.34375" fill="#c8dfdb"/><rect x="269.38" y="134.69" width="33.67" height="33.67" fill="#d4d0cc"/><polygon points="269.38,134.69 303.05,134.69 303.05,168.36" fill="#e6d4bf"/><rect x="303.05" y="134.69" width="33.67" height="33.67" fill="#c8dad0"/><polygon points="336.72,134.69 336.72,168.36 303.05,168.36" fill="#c8cdb3"/><rect x="269.38" y="168.36" width="33.67" height="33.67" fill="#eab4b1"/><polygon points="269.38,168.36 303.05,202.03000000000003 269.38,202.03000000000003" fill="#c8cfb9"/><rect x="303.05" y="168.36" width="33.67" height="33.67" fill="#c8d9ce"/><polygon points="303.05,168.36 336.72,202.03000000000003 303.05,202.03000000000003" fill="#c9ddd9"/><rect x="336.71875" y="134.6875" width="67.34375" height="67.34375" fill="#c8dfdb"/><rect x="336.72" y="134.69" width="33.67" height="33.67" fill="#95bbac"/><polygon points="336.72,134.69 370.39000000000004,134.69 336.72,168.36" fill="#eed1b8"/><rect x="370.39" y="134.69" width="33.67" height="33.67" fill="#c8d9ce"/><polygon points="370.39,134.69 404.06,134.69 404.06,168.36" fill="#c8cfb7"/><rect x="336.72" y="168.36" width="33.67" height="33.67" fill="#cadcd8"/><polygon points="370.39000000000004,168.36 370.39000000000004,202.03000000000003 336.72,202.03000000000003" fill="#c8d2bf"/><rect x="370.39" y="168.36" width="33.67" height="33.67" fill="#c6ded9"/><polygon points="370.39,168.36 404.06,168.36 370.39,202.03000000000003" fill="#c8deda"/><rect x="404.0625" y="134.6875" width="67.34375" height="67.34375" fill="#c8dfdb"/><rect x="404.06" y="134.69" width="33.67" height="33.67" fill="#ded7c6"/><polygon points="404.06,134.69 437.73,134.69 404.06,168.36" fill="#92b9a9"/><rect x="437.73" y="134.69" width="33.67" height="33.67" fill="#c8ded9"/><polygon points="437.73,134.69 471.40000000000003,134.69 471.40000000000003,168.36" fill="#ef6f86"/><rect x="404.06" y="168.36" width="33.67" height="33.67" fill="#f2d0b3"/><polygon points="404.06,168.36 437.73,168.36 404.06,202.03000000000003" fill="#dec3bf"/><rect x="437.73" y="168.36" width="33.67" height="33.67" fill="#f4a7a4"/><polygon points="471.40000000000003,168.36 471.40000000000003,202.03000000000003 437.73,202.03000000000003" fill="#c8cbaf"/><rect x="471.41" y="134.69" width="67.34" height="67.34" fill="#ccdad6"/><polygon points="471.41,134.69 538.75,134.69 471.41,202.03" fill="#d0c7c9"/><rect x="538.75" y="134.6875" width="67.34375" height="67.34375" fill="#c8dfdb"/><rect x="538.75" y="134.69" width="33.67" height="33.67" fill="#c9dfda"/><polygon points="538.75,134.69 572.42,134.69 538.75,168.36" fill="#b5d2ca"/><rect x="572.42" y="134.69" width="33.67" height="33.67" fill="#e0d6c4"/><polygon points="572.42,134.69 606.0899999999999,168.36 572.42,168.36" fill="#f5a6a3"/><rect x="538.75" y="168.36" width="33.67" height="33.67" fill="#c9deda"/><polygon points="538.75,168.36 572.42,168.36 572.42,202.03000000000003" fill="#df9ca8"/><rect x="572.42" y="168.36" width="33.67" height="33.67" fill="#e9b6b2"/><polygon points="572.42,168.36 606.0899999999999,168.36 606.0899999999999,202.03000000000003" fill="#cdd8d4"/><rect x="606.09375" y="134.6875" width="67.34375" height="67.34375" fill="#c8dfdb"/><rect x="606.09" y="134.69" width="33.67" height="33.67" fill="#c0d9d3"/><polygon points="606.09,134.69 639.76,134.69 639.76,168.36" fill="#f0d0b6"/><rect x="639.77" y="134.69" width="33.67" height="33.67" fill="#cfddd5"/><polygon points="639.77,134.69 673.4399999999999,134.69 673.4399999999999,168.36" fill="#d9c9c5"/><rect x="606.09" y="168.36" width="33.67" height="33.67" fill="#e8b6b3"/><polygon points="639.76,168.36 639.76,202.03000000000003 606.09,202.03000000000003" fill="#c8dcd5"/><rect x="639.77" y="168.36" width="33.67" height="33.67" fill="#ccded7"/><polygon points="639.77,168.36 673.4399999999999,202.03000000000003 639.77,202.03000000000003" fill="#c8deda"/><rect x="673.44" y="134.69" width="67.34" height="67.34" fill="#dac8c5"/><polygon points="673.44,134.69 740.7800000000001,134.69 673.44,202.03" fill="#d8b0b7"/><rect x="0" y="202.03125" width="67.34375" height="67.34375" fill="#c8dfdb"/><rect x="0" y="202.03" width="33.67" height="33.67" fill="#dda2ad"/><polygon points="0,202.03 33.67,202.03 0,235.7" fill="#dfc2be"/><rect x="33.67" y="202.03" width="33.67" height="33.67" fill="#ccd4d3"/><polygon points="67.34,202.03 67.34,235.7 33.67,235.7" fill="#d1c6c8"/><rect x="0" y="235.7" width="33.67" height="33.67" fill="#c8d3c0"/><polygon points="0,235.7 33.67,235.7 33.67,269.37" fill="#e2d6c3"/><rect x="33.67" y="235.7" width="33.67" height="33.67" fill="#ebd2ba"/><polygon points="33.67,235.7 67.34,235.7 33.67,269.37" fill="#c8c8aa"/><rect x="67.34375" y="202.03125" width="67.34375" height="67.34375" fill="#c8dfdb"/><rect x="67.34" y="202.03" width="33.67" height="33.67" fill="#cdd9d5"/><polygon points="101.01,202.03 101.01,235.7 67.34,235.7" fill="#a6c7bb"/><rect x="101.02" y="202.03" width="33.67" height="33.67" fill="#d1c4c7"/><polygon points="101.02,202.03 134.69,202.03 134.69,235.7" fill="#f3627d"/><rect x="67.34" y="235.7" width="33.67" height="33.67" fill="#d9d9cb"/><polygon points="67.34,235.7 101.01,235.7 101.01,269.37" fill="#d0dcd4"/><rect x="101.02" y="235.7" width="33.67" height="33.67" fill="#b4d1c8"/><polygon points="101.02,235.7 134.69,269.37 101.02,269.37" fill="#f16981"/><rect x="134.6875" y="202.03125" width="67.34375" height="67.34375" fill="#c8dfdb"/><rect x="134.69" y="202.03" width="33.67" height="33.67" fill="#85b09d"/><polygon points="134.69,202.03 168.36,202.03 168.36,235.7" fill="#e197a4"/><rect x="168.36" y="202.03" width="33.67" height="33.67" fill="#f8cdae"/><polygon points="202.03000000000003,202.03 202.03000000000003,235.7 168.36,235.7" fill="#c8ceb6"/><rect x="134.69" y="235.7" width="33.67" height="33.67" fill="#b7d3cb"/><polygon points="134.69,235.7 168.36,269.37 134.69,269.37" fill="#d2dbd1"/><rect x="168.36" y="235.7" width="33.67" height="33.67" fill="#f3cfb2"/><polygon points="168.36,235.7 202.03000000000003,235.7 202.03000000000003,269.37" fill="#b4d1c8"/><rect x="202.03" y="202.03" width="67.34" height="67.34" fill="#c3dbd6"/><polygon points="202.03,202.03 269.37,202.03 269.37,269.37" fill="#e196a3"/><rect x="269.38" y="202.03" width="67.34" height="67.34" fill="#e8d3bd"/><polygon points="269.38,202.03 336.72,269.37 269.38,269.37" fill="#e78496"/><rect x="336.72" y="202.03" width="67.34" height="67.34" fill="#ccd2d1"/><polygon points="336.72,202.03 404.06000000000006,202.03 404.06000000000006,269.37" fill="#d0c9ca"/><rect x="404.0625" y="202.03125" width="67.34375" height="67.34375" fill="#c8dfdb"/><rect x="404.06" y="202.03" width="33.67" height="33.67" fill="#c0d9d4"/><polygon points="404.06,202.03 437.73,202.03 404.06,235.7" fill="#c8d6c7"/><rect x="437.73" y="202.03" width="33.67" height="33.67" fill="#c8d1bd"/><polygon points="437.73,202.03 471.40000000000003,202.03 437.73,235.7" fill="#c8d4c4"/><rect x="404.06" y="235.7" width="33.67" height="33.67" fill="#d2dbd2"/><polygon points="404.06,235.7 437.73,269.37 404.06,269.37" fill="#aecdc2"/><rect x="437.73" y="235.7" width="33.67" height="33.67" fill="#f8cdae"/><polygon points="437.73,235.7 471.40000000000003,235.7 437.73,269.37" fill="#cbded8"/><rect x="471.41" y="202.03" width="67.34" height="67.34" fill="#f3a8a5"/><polygon points="471.41,202.03 538.75,202.03 471.41,269.37" fill="#84b09c"/><rect x="538.75" y="202.03" width="67.34" height="67.34" fill="#ecd2ba"/><polygon points="538.75,202.03 606.09,202.03 606.09,269.37" fill="#c8d1bd"/><rect x="606.09375" y="202.03125" width="67.34375" height="67.34375" fill="#c8dfdb"/><rect x="606.09" y="202.03" width="33.67" height="33.67" fill="#b5d2ca"/><polygon points="606.09,202.03 639.76,202.03 606.09,235.7" fill="#8eb7a5"/><rect x="639.77" y="202.03" width="33.67" height="33.67" fill="#c1dad5"/><polygon points="673.4399999999999,202.03 673.4399999999999,235.7 639.77,235.7" fill="#d2c2c5"/><rect x="606.09" y="235.7" width="33.67" height="33.67" fill="#e5bab7"/><polygon points="639.76,235.7 639.76,269.37 606.09,269.37" fill="#9abfb0"/><rect x="639.77" y="235.7" width="33.67" height="33.67" fill="#f2cfb3"/><polygon points="639.77,235.7 673.4399999999999,235.7 673.4399999999999,269.37" fill="#c8cbaf"/><rect x="673.44" y="202.03" width="67.34" height="67.34" fill="#dac8c5"/><polygon points="740.7800000000001,202.03 740.7800000000001,269.37 673.44,269.37" fill="#c8d8cc"/><rect x="0" y="269.38" width="67.34" height="67.34" fill="#d7dacd"/><polygon points="0,269.38 67.34,269.38 67.34,336.72" fill="#c3dbd6"/><rect x="67.34375" y="269.375" width="67.34375" height="67.34375" fill="#c8dfdb"/><rect x="67.34" y="269.38" width="33.67" height="33.67" fill="#c8d8cb"/><polygon points="67.34,269.38 101.01,269.38 67.34,303.05" fill="#c8d4c4"/><rect x="101.02" y="269.38" width="33.67" height="33.67" fill="#b2d0c7"/><polygon points="101.02,269.38 134.69,303.05 101.02,303.05" fill="#94bbab"/><rect x="67.34" y="303.05" width="33.67" height="33.67" fill="#84b09c"/><polygon points="67.34,303.05 101.01,303.05 67.34,336.72" fill="#c8d4c4"/><rect x="101.02" y="303.05" width="33.67" height="33.67" fill="#f3cfb2"/><polygon points="101.02,303.05 134.69,303.05 101.02,336.72" fill="#c8dfdb"/><rect x="134.6875" y="269.375" width="67.34375" height="67.34375" fill="#c8dfdb"/><rect x="134.69" y="269.38" width="33.67" height="33.67" fill="#d2c3c6"/><polygon points="168.36,269.38 168.36,303.05 134.69,303.05" fill="#e0c0bd"/><rect x="168.36" y="269.38" width="33.67" height="33.67" fill="#f7ceaf"/><polygon points="168.36,269.38 202.03000000000003,269.38 168.36,303.05" fill="#d0dcd4"/><rect x="134.69" y="303.05" width="33.67" height="33.67" fill="#c8dcd3"/><polygon points="134.69,303.05 168.36,303.05 168.36,336.72" fill="#e2d6c3"/><rect x="168.36" y="303.05" width="33.67" height="33.67" fill="#dda2ad"/><polygon points="168.36,303.05 202.03000000000003,336.72 168.36,336.72" fill="#92baa9"/><rect x="202.03" y="269.38" width="67.34" height="67.34" fill="#f2aaa6"/><polygon points="202.03,269.38 269.37,269.38 269.37,336.72" fill="#e7b8b4"/><rect x="269.375" y="269.375" width="67.34375" height="67.34375" fill="#c8dfdb"/><rect x="269.38" y="269.38" width="33.67" height="33.67" fill="#c6ded9"/><polygon points="303.05,269.38 303.05,303.05 269.38,303.05" fill="#f4607b"/><rect x="303.05" y="269.38" width="33.67" height="33.67" fill="#c8d7c9"/><polygon points="303.05,269.38 336.72,303.05 303.05,303.05" fill="#eeafac"/><rect x="269.38" y="303.05" width="33.67" height="33.67" fill="#e7d4be"/><polygon points="269.38,303.05 303.05,336.72 269.38,336.72" fill="#ef7087"/><rect x="303.05" y="303.05" width="33.67" height="33.67" fill="#ddc5c1"/><polygon points="336.72,303.05 336.72,336.72 303.05,336.72" fill="#c8d9cd"/><rect x="336.71875" y="269.375" width="67.34375" height="67.34375" fill="#c8dfdb"/><rect x="336.72" y="269.38" width="33.67" height="33.67" fill="#c8d0bb"/><polygon points="336.72,269.38 370.39000000000004,303.05 336.72,303.05" fill="#d4bcc0"/><rect x="370.39" y="269.38" width="33.67" height="33.67" fill="#88b29f"/><polygon points="370.39,269.38 404.06,303.05 370.39,303.05" fill="#cfcacb"/><rect x="336.72" y="303.05" width="33.67" height="33.67" fill="#b9d4cd"/><polygon points="336.72,303.05 370.39000000000004,336.72 336.72,336.72" fill="#d9d9cb"/><rect x="370.39" y="303.05" width="33.67" height="33.67" fill="#f1aba8"/><polygon points="404.06,303.05 404.06,336.72 370.39,336.72" fill="#dec3bf"/><rect x="404.0625" y="269.375" width="67.34375" height="67.34375" fill="#c8dfdb"/><rect x="404.06" y="269.38" width="33.67" height="33.67" fill="#ddd7c7"/><polygon points="404.06,269.38 437.73,269.38 437.73,303.05" fill="#cbded8"/><rect x="437.73" y="269.38" width="33.67" height="33.67" fill="#95bcac"/><polygon points="437.73,269.38 471.40000000000003,269.38 437.73,303.05" fill="#ecb1ad"/><rect x="404.06" y="303.05" width="33.67" height="33.67" fill="#c8ccb2"/><polygon points="404.06,303.05 437.73,303.05 404.06,336.72" fill="#dad8ca"/><rect x="437.73" y="303.05" width="33.67" height="33.67" fill="#9bc0b2"/><polygon points="437.73,303.05 471.40000000000003,336.72 437.73,336.72" fill="#c8dfdb"/><rect x="471.41" y="269.38" width="67.34" height="67.34" fill="#d8b2b9"/><polygon points="471.41,269.38 538.75,336.72 471.41,336.72" fill="#c8d4c3"/><rect x="538.75" y="269.38" width="67.34" height="67.34" fill="#d2d2ce"/><polygon points="606.09,269.38 606.09,336.72 538.75,336.72" fill="#b0cec5"/><rect x="606.09375" y="269.375" width="67.34375" height="67.34375" fill="#c8dfdb"/><rect x="606.09" y="269.38" width="33.67" height="33.67" fill="#d1d4d0"/><polygon points="606.09,269.38 639.76,269.38 606.09,303.05" fill="#f9506f"/><rect x="639.77" y="269.38" width="33.67" height="33.67" fill="#e1bfbb"/><polygon points="673.4399999999999,269.38 673.4399999999999,303.05 639.77,303.05" fill="#a8c9bd"/><rect x="606.09" y="303.05" width="33.67" height="33.67" fill="#ea7d91"/><polygon points="606.09,303.05 639.76,336.72 606.09,336.72" fill="#dfd7c6"/><rect x="639.77" y="303.05" width="33.67" height="33.67" fill="#c8cdb4"/><polygon points="639.77,303.05 673.4399999999999,336.72 639.77,336.72" fill="#adccc2"/><rect x="673.44" y="269.38" width="67.34" height="67.34" fill="#ed738a"/><polygon points="673.44,269.38 740.7800000000001,269.38 673.44,336.72" fill="#f8cdae"/><rect x="0" y="336.72" width="67.34" height="67.34" fill="#c6deda"/><polygon points="67.34,336.72 67.34,404.06000000000006 0,404.06000000000006" fill="#c8d6c8"/><rect x="67.34375" y="336.71875" width="67.34375" height="67.34375" fill="#c8dfdb"/><rect x="67.34" y="336.72" width="33.67" height="33.67" fill="#dcc6c2"/><polygon points="67.34,336.72 101.01,370.39000000000004 67.34,370.39000000000004" fill="#8eb7a5"/><rect x="101.02" y="336.72" width="33.67" height="33.67" fill="#87b29f"/><polygon points="134.69,336.72 134.69,370.39000000000004 101.02,370.39000000000004" fill="#88b3a0"/><rect x="67.34" y="370.39" width="33.67" height="33.67" fill="#dda1ac"/><polygon points="67.34,370.39 101.01,404.06 67.34,404.06" fill="#c8caae"/><rect x="101.02" y="370.39" width="33.67" height="33.67" fill="#c8d2be"/><polygon points="134.69,370.39 134.69,404.06 101.02,404.06" fill="#f0aca9"/><rect x="134.69" y="336.72" width="67.34" height="67.34" fill="#c8ccb2"/><polygon points="134.69,336.72 202.03,336.72 202.03,404.06000000000006" fill="#fb4b6b"/><rect x="202.03125" y="336.71875" width="67.34375" height="67.34375" fill="#c8dfdb"/><rect x="202.03" y="336.72" width="33.67" height="33.67" fill="#d0dcd3"/><polygon points="235.7,336.72 235.7,370.39000000000004 202.03,370.39000000000004" fill="#c8d5c5"/><rect x="235.7" y="336.72" width="33.67" height="33.67" fill="#c8ded8"/><polygon points="235.7,336.72 269.37,336.72 269.37,370.39000000000004" fill="#f4cfb2"/><rect x="202.03" y="370.39" width="33.67" height="33.67" fill="#c8d0ba"/><polygon points="235.7,370.39 235.7,404.06 202.03,404.06" fill="#cdd9d5"/><rect x="235.7" y="370.39" width="33.67" height="33.67" fill="#f1d0b4"/><polygon points="269.37,370.39 269.37,404.06 235.7,404.06" fill="#d7dacd"/><rect x="269.38" y="336.72" width="67.34" height="67.34" fill="#cbd7d5"/><polygon points="336.72,336.72 336.72,404.06000000000006 269.38,404.06000000000006" fill="#8eb6a5"/><rect x="336.71875" y="336.71875" width="67.34375" height="67.34375" fill="#c8dfdb"/><rect x="336.72" y="336.72" width="33.67" height="33.67" fill="#e88294"/><polygon points="336.72,336.72 370.39000000000004,370.39000000000004 336.72,370.39000000000004" fill="#c8d2bf"/><rect x="370.39" y="336.72" width="33.67" height="33.67" fill="#e58c9d"/><polygon points="370.39,336.72 404.06,370.39000000000004 370.39,370.39000000000004" fill="#e1bfbb"/><rect x="336.72" y="370.39" width="33.67" height="33.67" fill="#ebd2ba"/><polygon points="336.72,370.39 370.39000000000004,404.06 336.72,404.06" fill="#c8ddd6"/><rect x="370.39" y="370.39" width="33.67" height="33.67" fill="#d0d5d1"/><polygon points="370.39,370.39 404.06,370.39 404.06,404.06" fill="#d8d9cc"/><rect x="404.0625" y="336.71875" width="67.34375" height="67.34375" fill="#c8dfdb"/><rect x="404.06" y="336.72" width="33.67" height="33.67" fill="#d0dcd4"/><polygon points="404.06,336.72 437.73,336.72 404.06,370.39000000000004" fill="#d4d0cd"/><rect x="437.73" y="336.72" width="33.67" height="33.67" fill="#a4c6ba"/><polygon points="471.40000000000003,336.72 471.40000000000003,370.39000000000004 437.73,370.39000000000004" fill="#f95270"/><rect x="404.06" y="370.39" width="33.67" height="33.67" fill="#e3d5c2"/><polygon points="437.73,370.39 437.73,404.06 404.06,404.06" fill="#e4d5c1"/><rect x="437.73" y="370.39" width="33.67" height="33.67" fill="#f7a3a0"/><polygon points="437.73,370.39 471.40000000000003,370.39 471.40000000000003,404.06" fill="#98beaf"/><rect x="471.40625" y="336.71875" width="67.34375" height="67.34375" fill="#c8dfdb"/><rect x="471.41" y="336.72" width="33.67" height="33.67" fill="#e9d3bc"/><polygon points="471.41,336.72 505.08000000000004,336.72 505.08000000000004,370.39000000000004" fill="#eeaeab"/><rect x="505.08" y="336.72" width="33.67" height="33.67" fill="#e4d5c0"/><polygon points="505.08,336.72 538.75,336.72 538.75,370.39000000000004" fill="#df9da9"/><rect x="471.41" y="370.39" width="33.67" height="33.67" fill="#edb0ad"/><polygon points="505.08000000000004,370.39 505.08000000000004,404.06 471.41,404.06" fill="#d0dcd3"/><rect x="505.08" y="370.39" width="33.67" height="33.67" fill="#e294a2"/><polygon points="505.08,370.39 538.75,370.39 538.75,404.06" fill="#cdd9d5"/><rect x="538.75" y="336.72" width="67.34" height="67.34" fill="#c8d6c8"/><polygon points="606.09,336.72 606.09,404.06000000000006 538.75,404.06000000000006" fill="#cecdce"/><rect x="606.09" y="336.72" width="67.34" height="67.34" fill="#a0c3b6"/><polygon points="606.09,336.72 673.4300000000001,404.06000000000006 606.09,404.06000000000006" fill="#97bdae"/><rect x="673.4375" y="336.71875" width="67.34375" height="67.34375" fill="#c8dfdb"/><rect x="673.44" y="336.72" width="33.67" height="33.67" fill="#d7ccc9"/><polygon points="673.44,336.72 707.11,370.39000000000004 673.44,370.39000000000004" fill="#c6ddd9"/><rect x="707.11" y="336.72" width="33.67" height="33.67" fill="#c8d5c6"/><polygon points="707.11,336.72 740.78,336.72 740.78,370.39000000000004" fill="#d7b3ba"/><rect x="673.44" y="370.39" width="33.67" height="33.67" fill="#e7b8b5"/><polygon points="707.11,370.39 707.11,404.06 673.44,404.06" fill="#f2aaa7"/><rect x="707.11" y="370.39" width="33.67" height="33.67" fill="#c8d0ba"/><polygon points="707.11,370.39 740.78,370.39 740.78,404.06" fill="#eab4b1"/><rect x="0" y="404.0625" width="67.34375" height="67.34375" fill="#c8dfdb"/><rect x="0" y="404.06" width="33.67" height="33.67" fill="#d7d9cc"/><polygon points="0,404.06 33.67,437.73 0,437.73" fill="#b8d4cc"/><rect x="33.67" y="404.06" width="33.67" height="33.67" fill="#d9cac6"/><polygon points="33.67,404.06 67.34,437.73 33.67,437.73" fill="#a4c6ba"/><rect x="0" y="437.73" width="33.67" height="33.67" fill="#c8d4c4"/><polygon points="33.67,437.73 33.67,471.40000000000003 0,471.40000000000003" fill="#f6ceb0"/><rect x="33.67" y="437.73" width="33.67" height="33.67" fill="#c8cbb1"/><polygon points="33.67,437.73 67.34,437.73 33.67,471.40000000000003" fill="#c3dbd6"/><rect x="67.34375" y="404.0625" width="67.34375" height="67.34375" fill="#c8dfdb"/><rect x="67.34" y="404.06" width="33.67" height="33.67" fill="#edb1ad"/><polygon points="67.34,404.06 101.01,437.73 67.34,437.73" fill="#92baa9"/><rect x="101.02" y="404.06" width="33.67" height="33.67" fill="#f3cfb3"/><polygon points="134.69,404.06 134.69,437.73 101.02,437.73" fill="#d9d9cb"/><rect x="67.34" y="437.73" width="33.67" height="33.67" fill="#c8d8cd"/><polygon points="67.34,437.73 101.01,437.73 101.01,471.40000000000003" fill="#ea7e91"/><rect x="101.02" y="437.73" width="33.67" height="33.67" fill="#e0c1be"/><polygon points="134.69,437.73 134.69,471.40000000000003 101.02,471.40000000000003" fill="#a1c4b6"/><rect x="134.69" y="404.06" width="67.34" height="67.34" fill="#d6dacd"/><polygon points="134.69,404.06 202.03,471.4 134.69,471.4" fill="#b0cec5"/><rect x="202.03" y="404.06" width="67.34" height="67.34" fill="#e5d4c0"/><polygon points="202.03,404.06 269.37,471.4 202.03,471.4" fill="#fa4d6d"/><rect x="269.375" y="404.0625" width="67.34375" height="67.34375" fill="#c8dfdb"/><rect x="269.38" y="404.06" width="33.67" height="33.67" fill="#f75673"/><polygon points="269.38,404.06 303.05,404.06 269.38,437.73" fill="#c4dcd8"/><rect x="303.05" y="404.06" width="33.67" height="33.67" fill="#c8caae"/><polygon points="336.72,404.06 336.72,437.73 303.05,437.73" fill="#f8a3a0"/><rect x="269.38" y="437.73" width="33.67" height="33.67" fill="#e6b8b5"/><polygon points="303.05,437.73 303.05,471.40000000000003 269.38,471.40000000000003" fill="#c8d9cd"/><rect x="303.05" y="437.73" width="33.67" height="33.67" fill="#eeafac"/><polygon points="336.72,437.73 336.72,471.40000000000003 303.05,471.40000000000003" fill="#c8d1bd"/><rect x="336.71875" y="404.0625" width="67.34375" height="67.34375" fill="#c8dfdb"/><rect x="336.72" y="404.06" width="33.67" height="33.67" fill="#c8ddd7"/><polygon points="336.72,404.06 370.39000000000004,404.06 336.72,437.73" fill="#efd1b6"/><rect x="370.39" y="404.06" width="33.67" height="33.67" fill="#c8ddd7"/><polygon points="370.39,404.06 404.06,404.06 370.39,437.73" fill="#c8d6c8"/><rect x="336.72" y="437.73" width="33.67" height="33.67" fill="#b0cec5"/><polygon points="336.72,437.73 370.39000000000004,437.73 336.72,471.40000000000003" fill="#f8a29f"/><rect x="370.39" y="437.73" width="33.67" height="33.67" fill="#d0d5d1"/><polygon points="404.06,437.73 404.06,471.40000000000003 370.39,471.40000000000003" fill="#cecece"/><rect x="404.0625" y="404.0625" width="67.34375" height="67.34375" fill="#c8dfdb"/><rect x="404.06" y="404.06" width="33.67" height="33.67" fill="#e196a4"/><polygon points="437.73,404.06 437.73,437.73 404.06,437.73" fill="#faa09d"/><rect x="437.73" y="404.06" width="33.67" height="33.67" fill="#bdd7d1"/><polygon points="437.73,404.06 471.40000000000003,404.06 471.40000000000003,437.73" fill="#d3d1ce"/><rect x="404.06" y="437.73" width="33.67" height="33.67" fill="#88b29f"/><polygon points="437.73,437.73 437.73,471.40000000000003 404.06,471.40000000000003" fill="#99beaf"/><rect x="437.73" y="437.73" width="33.67" height="33.67" fill="#d4bdc2"/><polygon points="471.40000000000003,437.73 471.40000000000003,471.40000000000003 437.73,471.40000000000003" fill="#c8d1be"/><rect x="471.40625" y="404.0625" width="67.34375" height="67.34375" fill="#c8dfdb"/><rect x="471.41" y="404.06" width="33.67" height="33.67" fill="#c8d9ce"/><polygon points="471.41,404.06 505.08000000000004,404.06 471.41,437.73" fill="#c8dcd5"/><rect x="505.08" y="404.06" width="33.67" height="33.67" fill="#c8d1bd"/><polygon points="505.08,404.06 538.75,404.06 505.08,437.73" fill="#c7deda"/><rect x="471.41" y="437.73" width="33.67" height="33.67" fill="#86b19e"/><polygon points="471.41,437.73 505.08000000000004,471.40000000000003 471.41,471.40000000000003" fill="#b8d4cc"/><rect x="505.08" y="437.73" width="33.67" height="33.67" fill="#c8d9cf"/><polygon points="505.08,437.73 538.75,437.73 538.75,471.40000000000003" fill="#c8d4c4"/><rect x="538.75" y="404.0625" width="67.34375" height="67.34375" fill="#c8dfdb"/><rect x="538.75" y="404.06" width="33.67" height="33.67" fill="#e0c1bd"/><polygon points="538.75,404.06 572.42,404.06 538.75,437.73" fill="#e48f9e"/><rect x="572.42" y="404.06" width="33.67" height="33.67" fill="#c8dcd5"/><polygon points="572.42,404.06 606.0899999999999,404.06 572.42,437.73" fill="#f95170"/><rect x="538.75" y="437.73" width="33.67" height="33.67" fill="#c8dfda"/><polygon points="538.75,437.73 572.42,437.73 572.42,471.40000000000003" fill="#f26780"/><rect x="572.42" y="437.73" width="33.67" height="33.67" fill="#b0cfc5"/><polygon points="572.42,437.73 606.0899999999999,437.73 572.42,471.40000000000003" fill="#e5d4c0"/><rect x="606.09375" y="404.0625" width="67.34375" height="67.34375" fill="#c8dfdb"/><rect x="606.09" y="404.06" width="33.67" height="33.67" fill="#ddd7c7"/><polygon points="639.76,404.06 639.76,437.73 606.09,437.73" fill="#87b19e"/><rect x="639.77" y="404.06" width="33.67" height="33.67" fill="#f55d79"/><polygon points="639.77,404.06 673.4399999999999,404.06 639.77,437.73" fill="#f4cfb1"/><rect x="606.09" y="437.73" width="33.67" height="33.67" fill="#89b3a1"/><polygon points="606.09,437.73 639.76,437.73 639.76,471.40000000000003" fill="#c8ccb2"/><rect x="639.77" y="437.73" width="33.67" height="33.67" fill="#e8b6b3"/><polygon points="639.77,437.73 673.4399999999999,471.40000000000003 639.77,471.40000000000003" fill="#dcc6c2"/><rect x="673.4375" y="404.0625" width="67.34375" height="67.34375" fill="#c8dfdb"/><rect x="673.44" y="404.06" width="33.67" height="33.67" fill="#d7ccc8"/><polygon points="673.44,404.06 707.11,404.06 707.11,437.73" fill="#cadeda"/><rect x="707.11" y="404.06" width="33.67" height="33.67" fill="#d6dace"/><polygon points="707.11,404.06 740.78,404.06 707.11,437.73" fill="#d8cbc7"/><rect x="673.44" y="437.73" width="33.67" height="33.67" fill="#bbd6cf"/><polygon points="707.11,437.73 707.11,471.40000000000003 673.44,471.40000000000003" fill="#c8d0ba"/><rect x="707.11" y="437.73" width="33.67" height="33.67" fill="#e3bdb9"/><polygon points="707.11,437.73 740.78,471.40000000000003 707.11,471.40000000000003" fill="#d8d9cc"/><rect x="0" y="471.41" width="67.34" height="67.34" fill="#c8ded9"/><polygon points="0,471.41 67.34,538.75 0,538.75" fill="#d4dbd0"/><rect x="67.34375" y="471.40625" width="67.34375" height="67.34375" fill="#c8dfdb"/><rect x="67.34" y="471.41" width="33.67" height="33.67" fill="#e2bebb"/><polygon points="67.34,471.41 101.01,471.41 101.01,505.08000000000004" fill="#e0c0bd"/><rect x="101.02" y="471.41" width="33.67" height="33.67" fill="#91b9a8"/><polygon points="101.02,471.41 134.69,471.41 134.69,505.08000000000004" fill="#8bb5a3"/><rect x="67.34" y="505.08" width="33.67" height="33.67" fill="#c5ddd8"/><polygon points="101.01,505.08 101.01,538.75 67.34,538.75" fill="#c8ceb5"/><rect x="101.02" y="505.08" width="33.67" height="33.67" fill="#e0c1bd"/><polygon points="134.69,505.08 134.69,538.75 101.02,538.75" fill="#d7cbc8"/><rect x="134.6875" y="471.40625" width="67.34375" height="67.34375" fill="#c8dfdb"/><rect x="134.69" y="471.41" width="33.67" height="33.67" fill="#ed7389"/><polygon points="168.36,471.41 168.36,505.08000000000004 134.69,505.08000000000004" fill="#d9cac6"/><rect x="168.36" y="471.41" width="33.67" height="33.67" fill="#85b19d"/><polygon points="168.36,471.41 202.03000000000003,471.41 202.03000000000003,505.08000000000004" fill="#e9d3bc"/><rect x="134.69" y="505.08" width="33.67" height="33.67" fill="#e48f9f"/><polygon points="168.36,505.08 168.36,538.75 134.69,538.75" fill="#f4cfb2"/><rect x="168.36" y="505.08" width="33.67" height="33.67" fill="#f9516f"/><polygon points="168.36,505.08 202.03000000000003,505.08 202.03000000000003,538.75" fill="#dcd8c9"/><rect x="202.03" y="471.41" width="67.34" height="67.34" fill="#e2bebb"/><polygon points="202.03,471.41 269.37,471.41 269.37,538.75" fill="#ea7d91"/><rect x="269.375" y="471.40625" width="67.34375" height="67.34375" fill="#c8dfdb"/><rect x="269.38" y="471.41" width="33.67" height="33.67" fill="#cadad7"/><polygon points="269.38,471.41 303.05,471.41 303.05,505.08000000000004" fill="#fd4768"/><rect x="303.05" y="471.41" width="33.67" height="33.67" fill="#cfdcd4"/><polygon points="303.05,471.41 336.72,471.41 303.05,505.08000000000004" fill="#dea1ac"/><rect x="269.38" y="505.08" width="33.67" height="33.67" fill="#ded7c6"/><polygon points="303.05,505.08 303.05,538.75 269.38,538.75" fill="#c9dfda"/><rect x="303.05" y="505.08" width="33.67" height="33.67" fill="#c8d0bb"/><polygon points="336.72,505.08 336.72,538.75 303.05,538.75" fill="#e6b9b6"/><rect x="336.71875" y="471.40625" width="67.34375" height="67.34375" fill="#c8dfdb"/><rect x="336.72" y="471.41" width="33.67" height="33.67" fill="#f2aaa7"/><polygon points="336.72,471.41 370.39000000000004,471.41 336.72,505.08000000000004" fill="#f55e7a"/><rect x="370.39" y="471.41" width="33.67" height="33.67" fill="#e58b9b"/><polygon points="370.39,471.41 404.06,471.41 404.06,505.08000000000004" fill="#8ab4a2"/><rect x="336.72" y="505.08" width="33.67" height="33.67" fill="#c9dfda"/><polygon points="370.39000000000004,505.08 370.39000000000004,538.75 336.72,538.75" fill="#d5cecb"/><rect x="370.39" y="505.08" width="33.67" height="33.67" fill="#afcdc3"/><polygon points="404.06,505.08 404.06,538.75 370.39,538.75" fill="#c8c8aa"/><rect x="404.06" y="471.41" width="67.34" height="67.34" fill="#cfcacb"/><polygon points="404.06,471.41 471.4,471.41 471.4,538.75" fill="#e391a0"/><rect x="471.41" y="471.41" width="67.34" height="67.34" fill="#e4bcb8"/><polygon points="471.41,471.41 538.75,538.75 471.41,538.75" fill="#e391a0"/><rect x="538.75" y="471.41" width="67.34" height="67.34" fill="#f9516f"/><polygon points="606.09,471.41 606.09,538.75 538.75,538.75" fill="#e7b8b5"/><rect x="606.09375" y="471.40625" width="67.34375" height="67.34375" fill="#c8dfdb"/><rect x="606.09" y="471.41" width="33.67" height="33.67" fill="#c9dfda"/><polygon points="606.09,471.41 639.76,471.41 606.09,505.08000000000004" fill="#c8d2be"/><rect x="639.77" y="471.41" width="33.67" height="33.67" fill="#eed1b7"/><polygon points="639.77,471.41 673.4399999999999,471.41 673.4399999999999,505.08000000000004" fill="#f7ceaf"/><rect x="606.09" y="505.08" width="33.67" height="33.67" fill="#c8d3c0"/><polygon points="606.09,505.08 639.76,505.08 606.09,538.75" fill="#a7c8bc"/><rect x="639.77" y="505.08" width="33.67" height="33.67" fill="#b8d4cc"/><polygon points="639.77,505.08 673.4399999999999,538.75 639.77,538.75" fill="#c8dcd5"/><rect x="673.4375" y="471.40625" width="67.34375" height="67.34375" fill="#c8dfdb"/><rect x="673.44" y="471.41" width="33.67" height="33.67" fill="#c8d1bd"/><polygon points="707.11,471.41 707.11,505.08000000000004 673.44,505.08000000000004" fill="#d4dbd0"/><rect x="707.11" y="471.41" width="33.67" height="33.67" fill="#90b8a7"/><polygon points="707.11,471.41 740.78,471.41 707.11,505.08000000000004" fill="#d5ceca"/><rect x="673.44" y="505.08" width="33.67" height="33.67" fill="#c8ceb5"/><polygon points="673.44,505.08 707.11,505.08 707.11,538.75" fill="#c8caad"/><rect x="707.11" y="505.08" width="33.67" height="33.67" fill="#ddd7c7"/><polygon points="740.78,505.08 740.78,538.75 707.11,538.75" fill="#c8dad1"/></g></svg>